<svg xmlns="http://www.w3.org/2000/svg" width="330.03000000000003" height="35" viewBox="0 0 330.03000000000003 35"><rect class="svg__rect" x="0" y="0" width="173.74" height="35" fill="#3A6918"/><rect class="svg__rect" x="171.74" y="0" width="158.29000000000002" height="35" fill="#631414"/><path class="svg__text" d="M15.78 22L14.31 22L14.31 13.47L15.78 13.47L15.78 22ZM22.07 22L20.59 22L20.59 13.47L22.07 13.47L25.89 19.54L25.89 13.47L27.36 13.47L27.36 22L25.88 22L22.07 15.95L22.07 22ZM39.55 22L38.08 22L38.08 13.47L40.00 13.47L42.46 20.01L44.91 13.47L46.83 13.47L46.83 22L45.35 22L45.35 19.19L45.50 15.43L42.98 22L41.92 22L39.41 15.43L39.55 19.19L39.55 22ZM57.15 22L51.57 22L51.57 13.47L57.11 13.47L57.11 14.66L53.05 14.66L53.05 17.02L56.56 17.02L56.56 18.19L53.05 18.19L53.05 20.82L57.15 20.82L57.15 22ZM62.82 22L61.34 22L61.34 13.47L63.27 13.47L65.73 20.01L68.18 13.47L70.10 13.47L70.10 22L68.62 22L68.62 19.19L68.77 15.43L66.25 22L65.19 22L62.67 15.43L62.82 19.19L62.82 22ZM74.57 18.00L74.57 18.00L74.57 17.52Q74.57 16.28 75.01 15.32Q75.45 14.37 76.26 13.86Q77.06 13.35 78.11 13.35Q79.15 13.35 79.96 13.85Q80.76 14.35 81.20 15.29Q81.64 16.23 81.65 17.48L81.65 17.48L81.65 17.96Q81.65 19.21 81.21 20.16Q80.78 21.10 79.97 21.61Q79.17 22.12 78.12 22.12L78.12 22.12Q77.08 22.12 76.27 21.61Q75.46 21.10 75.02 20.17Q74.57 19.23 74.57 18.00ZM76.05 17.46L76.05 17.96Q76.05 19.36 76.60 20.13Q77.15 20.90 78.12 20.90L78.12 20.90Q79.10 20.90 79.63 20.15Q80.16 19.40 80.16 17.96L80.16 17.96L80.16 17.51Q80.16 16.09 79.63 15.34Q79.09 14.58 78.11 14.58L78.11 14.58Q77.15 14.58 76.60 15.33Q76.06 16.09 76.05 17.46L76.05 17.46ZM87.59 22L86.11 22L86.11 13.47L89.11 13.47Q90.59 13.47 91.39 14.13Q92.19 14.79 92.19 16.05L92.19 16.05Q92.19 16.90 91.78 17.48Q91.37 18.06 90.63 18.37L90.63 18.37L92.55 21.92L92.55 22L90.96 22L89.25 18.71L87.59 18.71L87.59 22ZM87.59 14.66L87.59 17.52L89.12 17.52Q89.87 17.52 90.29 17.15Q90.71 16.77 90.71 16.11L90.71 16.11Q90.71 15.43 90.32 15.05Q89.93 14.68 89.16 14.66L89.16 14.66L87.59 14.66ZM97.37 22L95.83 22L99.05 13.47L100.38 13.47L103.61 22L102.06 22L101.36 20.01L98.06 20.01L97.37 22ZM99.71 15.28L98.47 18.82L100.95 18.82L99.71 15.28ZM110.67 22L107.56 22L107.56 13.47L110.49 13.47Q111.93 13.47 112.69 14.05Q113.45 14.63 113.45 15.78L113.45 15.78Q113.45 16.36 113.13 16.83Q112.81 17.30 112.20 17.56L112.20 17.56Q112.89 17.75 113.27 18.26Q113.65 18.78 113.65 19.51L113.65 19.51Q113.65 20.71 112.88 21.36Q112.11 22 110.67 22L110.67 22ZM109.05 18.15L109.05 20.82L110.69 20.82Q111.39 20.82 111.78 20.47Q112.17 20.13 112.17 19.51L112.17 19.51Q112.17 18.18 110.81 18.15L110.81 18.15L109.05 18.15ZM109.05 14.66L109.05 17.06L110.50 17.06Q111.19 17.06 111.58 16.75Q111.97 16.43 111.97 15.86L111.97 15.86Q111.97 15.23 111.61 14.95Q111.25 14.66 110.49 14.66L110.49 14.66L109.05 14.66ZM123.48 22L118.12 22L118.12 13.47L119.60 13.47L119.60 20.82L123.48 20.82L123.48 22ZM133.18 22L127.60 22L127.60 13.47L133.14 13.47L133.14 14.66L129.08 14.66L129.08 17.02L132.59 17.02L132.59 18.19L129.08 18.19L129.08 20.82L133.18 20.82L133.18 22ZM143.08 18.00L143.08 18.00L143.08 17.52Q143.08 16.28 143.52 15.32Q143.97 14.37 144.77 13.86Q145.58 13.35 146.62 13.35Q147.66 13.35 148.47 13.85Q149.28 14.35 149.72 15.29Q150.15 16.23 150.16 17.48L150.16 17.48L150.16 17.96Q150.16 19.21 149.73 20.16Q149.29 21.10 148.49 21.61Q147.68 22.12 146.63 22.12L146.63 22.12Q145.60 22.12 144.78 21.61Q143.97 21.10 143.53 20.17Q143.09 19.23 143.08 18.00ZM144.56 17.46L144.56 17.96Q144.56 19.36 145.11 20.13Q145.66 20.90 146.63 20.90L146.63 20.90Q147.62 20.90 148.15 20.15Q148.68 19.40 148.68 17.96L148.68 17.96L148.68 17.51Q148.68 16.09 148.14 15.34Q147.61 14.58 146.62 14.58L146.62 14.58Q145.66 14.58 145.12 15.33Q144.58 16.09 144.56 17.46L144.56 17.46ZM156.11 22L154.63 22L154.63 13.47L160.05 13.47L160.05 14.66L156.11 14.66L156.11 17.20L159.54 17.20L159.54 18.38L156.11 18.38L156.11 22Z" fill="#FFFFFF"/><path class="svg__text" d="M187.72 15.48L185.14 15.48L185.14 13.60L192.66 13.60L192.66 15.48L190.09 15.48L190.09 22L187.72 22L187.72 15.48ZM203.78 22L197.03 22L197.03 13.60L203.62 13.60L203.62 15.44L199.39 15.44L199.39 16.85L203.12 16.85L203.12 18.63L199.39 18.63L199.39 20.17L203.78 20.17L203.78 22ZM208.15 17.80L208.15 17.80Q208.15 16.54 208.75 15.54Q209.35 14.55 210.40 13.99Q211.45 13.43 212.77 13.43L212.77 13.43Q213.92 13.43 214.85 13.84Q215.77 14.25 216.38 15.02L216.38 15.02L214.87 16.39Q214.06 15.40 212.89 15.40L212.89 15.40Q212.21 15.40 211.67 15.70Q211.14 16 210.84 16.54Q210.55 17.09 210.55 17.80L210.55 17.80Q210.55 18.51 210.84 19.05Q211.14 19.60 211.67 19.90Q212.21 20.20 212.89 20.20L212.89 20.20Q214.06 20.20 214.87 19.22L214.87 19.22L216.38 20.58Q215.78 21.35 214.85 21.76Q213.92 22.17 212.77 22.17L212.77 22.17Q211.45 22.17 210.40 21.61Q209.35 21.05 208.75 20.05Q208.15 19.06 208.15 17.80ZM223.30 22L220.92 22L220.92 13.60L223.30 13.60L223.30 16.76L226.54 16.76L226.54 13.60L228.91 13.60L228.91 22L226.54 22L226.54 18.72L223.30 18.72L223.30 22ZM236.41 22L234.07 22L234.07 13.60L236.03 13.60L239.74 18.07L239.74 13.60L242.07 13.60L242.07 22L240.12 22L236.41 17.52L236.41 22ZM246.80 17.80L246.80 17.80Q246.80 16.55 247.40 15.55Q248.01 14.56 249.07 14.00Q250.13 13.43 251.47 13.43L251.47 13.43Q252.80 13.43 253.86 14.00Q254.92 14.56 255.53 15.55Q256.13 16.55 256.13 17.80L256.13 17.80Q256.13 19.05 255.53 20.04Q254.92 21.04 253.86 21.60Q252.80 22.17 251.47 22.17L251.47 22.17Q250.13 22.17 249.07 21.60Q248.01 21.04 247.40 20.04Q246.80 19.05 246.80 17.80ZM249.20 17.80L249.20 17.80Q249.20 18.51 249.50 19.05Q249.80 19.60 250.32 19.90Q250.83 20.20 251.47 20.20L251.47 20.20Q252.10 20.20 252.62 19.90Q253.13 19.60 253.43 19.05Q253.73 18.51 253.73 17.80L253.73 17.80Q253.73 17.09 253.43 16.54Q253.13 16 252.62 15.70Q252.10 15.40 251.47 15.40L251.47 15.40Q250.83 15.40 250.31 15.70Q249.80 16 249.50 16.54Q249.20 17.09 249.20 17.80ZM265.40 22L260.86 22L260.86 13.60L265.16 13.60Q266.77 13.60 267.61 14.19Q268.45 14.79 268.45 15.79L268.45 15.79Q268.45 16.39 268.16 16.87Q267.86 17.34 267.32 17.62L267.32 17.62Q268.04 17.87 268.45 18.41Q268.86 18.94 268.86 19.70L268.86 19.70Q268.86 20.80 267.97 21.40Q267.08 22 265.40 22L265.40 22ZM263.22 18.58L263.22 20.28L265.21 20.28Q266.46 20.28 266.46 19.43L266.46 19.43Q266.46 18.58 265.21 18.58L265.21 18.58L263.22 18.58ZM263.22 15.31L263.22 16.94L264.85 16.94Q266.05 16.94 266.05 16.12L266.05 16.12Q266.05 15.31 264.85 15.31L264.85 15.31L263.22 15.31ZM279.96 22L273.57 22L273.57 13.60L275.95 13.60L275.95 20.11L279.96 20.11L279.96 22ZM285.80 22L283.37 22L287.08 13.60L289.42 13.60L293.14 22L290.67 22L290.01 20.37L286.46 20.37L285.80 22ZM288.23 15.93L287.15 18.61L289.31 18.61L288.23 15.93ZM301.26 22L297.29 22L297.29 13.60L301.26 13.60Q302.65 13.60 303.71 14.12Q304.78 14.63 305.37 15.58Q305.96 16.53 305.96 17.80L305.96 17.80Q305.96 19.07 305.37 20.02Q304.78 20.97 303.71 21.48Q302.65 22 301.26 22L301.26 22ZM299.67 15.50L299.67 20.10L301.17 20.10Q302.25 20.10 302.90 19.49Q303.55 18.88 303.55 17.80L303.55 17.80Q303.55 16.72 302.90 16.11Q302.25 15.50 301.17 15.50L301.17 15.50L299.67 15.50ZM317.43 22L310.69 22L310.69 13.60L317.28 13.60L317.28 15.44L313.04 15.44L313.04 16.85L316.77 16.85L316.77 18.63L313.04 18.63L313.04 20.17L317.43 20.17L317.43 22Z" fill="#FFFFFF" x="184.74"/></svg>