<svg xmlns="http://www.w3.org/2000/svg" width="195.89" height="35" viewBox="0 0 195.89 35"><rect class="svg__rect" x="0" y="0" width="95.99" height="35" fill="#000000"/><rect class="svg__rect" x="93.99" y="0" width="101.9" height="35" fill="#389AD5"/><path class="svg__text" d="M15.69 22L14.22 22L14.22 13.47L16.14 13.47L18.60 20.01L21.06 13.47L22.97 13.47L22.97 22L21.49 22L21.49 19.19L21.64 15.43L19.12 22L18.06 22L15.55 15.43L15.69 19.19L15.69 22ZM28.49 22L26.95 22L30.17 13.47L31.50 13.47L34.73 22L33.18 22L32.49 20.01L29.18 20.01L28.49 22ZM30.83 15.28L29.60 18.82L32.07 18.82L30.83 15.28ZM41.14 22L38.69 22L38.69 13.47L41.21 13.47Q42.34 13.47 43.21 13.97Q44.09 14.48 44.57 15.40Q45.05 16.33 45.05 17.52L45.05 17.52L45.05 17.95Q45.05 19.16 44.57 20.08Q44.08 21.00 43.19 21.50Q42.30 22 41.14 22L41.14 22ZM40.17 14.66L40.17 20.82L41.14 20.82Q42.30 20.82 42.93 20.09Q43.55 19.36 43.56 17.99L43.56 17.99L43.56 17.52Q43.56 16.13 42.96 15.40Q42.35 14.66 41.21 14.66L41.21 14.66L40.17 14.66ZM55.09 22L49.51 22L49.51 13.47L55.05 13.47L55.05 14.66L51.00 14.66L51.00 17.02L54.50 17.02L54.50 18.19L51.00 18.19L51.00 20.82L55.09 20.82L55.09 22ZM68.38 22L65.26 22L65.26 13.47L68.19 13.47Q69.64 13.47 70.39 14.05Q71.15 14.63 71.15 15.78L71.15 15.78Q71.15 16.36 70.83 16.83Q70.51 17.30 69.90 17.56L69.90 17.56Q70.60 17.75 70.97 18.26Q71.35 18.78 71.35 19.51L71.35 19.51Q71.35 20.71 70.58 21.36Q69.81 22 68.38 22L68.38 22ZM66.75 18.15L66.75 20.82L68.39 20.82Q69.09 20.82 69.48 20.47Q69.88 20.13 69.88 19.51L69.88 19.51Q69.88 18.18 68.52 18.15L68.52 18.15L66.75 18.15ZM66.75 14.66L66.75 17.06L68.20 17.06Q68.89 17.06 69.28 16.75Q69.67 16.43 69.67 15.86L69.67 15.86Q69.67 15.23 69.31 14.95Q68.95 14.66 68.19 14.66L68.19 14.66L66.75 14.66ZM77.86 18.86L75.00 13.47L76.64 13.47L78.61 17.51L80.57 13.47L82.21 13.47L79.35 18.86L79.35 22L77.86 22L77.86 18.86Z" fill="#FFFFFF"/><path class="svg__text" d="M107.75 17.80L107.75 17.80Q107.75 16.55 108.35 15.55Q108.96 14.56 110.02 14.00Q111.08 13.43 112.41 13.43L112.41 13.43Q113.74 13.43 114.81 14.00Q115.87 14.56 116.48 15.55Q117.08 16.55 117.08 17.80L117.08 17.80Q117.08 19.22 116.31 20.30Q115.54 21.39 114.23 21.85L114.23 21.85Q114.47 22.12 114.70 22.23Q114.93 22.33 115.21 22.33L115.21 22.33Q115.92 22.33 116.49 21.75L116.49 21.75L117.52 22.97Q117.10 23.49 116.49 23.76Q115.88 24.03 115.16 24.03L115.16 24.03Q114.46 24.03 113.90 23.85Q113.34 23.67 112.77 23.25Q112.20 22.84 111.49 22.09L111.49 22.09Q110.40 21.91 109.55 21.31Q108.69 20.72 108.22 19.81Q107.75 18.89 107.75 17.80ZM110.15 17.80L110.15 17.80Q110.15 18.51 110.45 19.05Q110.75 19.60 111.27 19.90Q111.78 20.20 112.41 20.20L112.41 20.20Q113.05 20.20 113.57 19.90Q114.08 19.60 114.38 19.05Q114.68 18.51 114.68 17.80L114.68 17.80Q114.68 17.09 114.38 16.54Q114.08 16 113.57 15.70Q113.05 15.40 112.41 15.40L112.41 15.40Q111.78 15.40 111.26 15.70Q110.75 16 110.45 16.54Q110.15 17.09 110.15 17.80ZM124.19 22L121.81 22L121.81 13.60L124.19 13.60L124.19 22ZM131.70 22L129.37 22L129.37 13.60L131.32 13.60L135.03 18.07L135.03 13.60L137.36 13.60L137.36 22L135.41 22L131.70 17.52L131.70 22ZM142.09 17.80L142.09 17.80Q142.09 16.54 142.69 15.54Q143.29 14.55 144.36 13.99Q145.43 13.43 146.77 13.43L146.77 13.43Q147.95 13.43 148.88 13.83Q149.82 14.22 150.44 14.97L150.44 14.97L148.93 16.33Q148.09 15.40 146.91 15.40L146.91 15.40Q146.90 15.40 146.89 15.40L146.89 15.40Q145.81 15.40 145.15 16.06Q144.49 16.71 144.49 17.80L144.49 17.80Q144.49 18.50 144.79 19.04Q145.09 19.59 145.63 19.89Q146.17 20.20 146.87 20.20L146.87 20.20Q147.55 20.20 148.15 19.93L148.15 19.93L148.15 17.62L150.25 17.62L150.25 21.10Q149.53 21.61 148.59 21.89Q147.66 22.17 146.72 22.17L146.72 22.17Q145.40 22.17 144.34 21.61Q143.29 21.05 142.69 20.05Q142.09 19.06 142.09 17.80ZM156.71 16.78L154.68 16.78L154.68 13.60L161.64 13.60L161.64 15.09L158.67 22L156.08 22L158.91 15.48L156.71 15.48L156.71 16.78ZM165.88 18.03L165.88 18.03Q165.88 16.59 166.44 15.55Q166.99 14.51 168.00 13.97Q169.01 13.43 170.34 13.43L170.34 13.43Q171.06 13.43 171.71 13.59Q172.36 13.74 172.81 14.04L172.81 14.04L171.95 15.75Q171.34 15.31 170.40 15.31L170.40 15.31Q169.49 15.31 168.93 15.82Q168.37 16.32 168.28 17.27L168.28 17.27Q169.00 16.65 170.18 16.65L170.18 16.65Q170.97 16.65 171.63 16.98Q172.29 17.31 172.67 17.91Q173.06 18.52 173.06 19.30L173.06 19.30Q173.06 20.15 172.63 20.80Q172.19 21.46 171.44 21.82Q170.69 22.17 169.77 22.17L169.77 22.17Q167.97 22.17 166.92 21.10Q165.88 20.03 165.88 18.03ZM168.45 19.42L168.45 19.42Q168.45 19.89 168.76 20.18Q169.08 20.48 169.63 20.48L169.63 20.48Q170.13 20.48 170.45 20.19Q170.76 19.90 170.76 19.41L170.76 19.41Q170.76 18.93 170.45 18.64Q170.13 18.35 169.61 18.35L169.61 18.35Q169.10 18.35 168.77 18.65Q168.45 18.94 168.45 19.42ZM178.44 16.17L176.67 15.19Q177.17 14.37 178.05 13.90Q178.94 13.43 180.15 13.43L180.15 13.43Q181.12 13.43 181.85 13.74Q182.59 14.05 183.00 14.64Q183.42 15.22 183.42 15.99L183.42 15.99Q183.42 16.67 183.12 17.28Q182.83 17.89 181.99 18.65L181.99 18.65L180.41 20.11L183.65 20.11L183.65 22L177.10 22L177.10 20.51L180.25 17.57Q180.71 17.14 180.86 16.83Q181.02 16.53 181.02 16.22L181.02 16.22Q181.02 15.81 180.74 15.58Q180.47 15.35 179.94 15.35L179.94 15.35Q179.47 15.35 179.08 15.56Q178.69 15.77 178.44 16.17L178.44 16.17Z" fill="#FFFFFF" x="106.99"/></svg>