<svg xmlns="http://www.w3.org/2000/svg" width="175.52" height="35" viewBox="0 0 175.52 35"><rect class="svg__rect" x="0" y="0" width="143.53" height="35" fill="#000000"/><rect class="svg__rect" x="141.53" y="0" width="33.99000000000001" height="35" fill="#389AD5"/><path class="svg__text" d="M15.69 22L14.22 22L14.22 13.47L16.14 13.47L18.60 20.01L21.06 13.47L22.97 13.47L22.97 22L21.49 22L21.49 19.19L21.64 15.43L19.12 22L18.06 22L15.55 15.43L15.69 19.19L15.69 22ZM27.44 18.00L27.44 18.00L27.44 17.52Q27.44 16.28 27.88 15.32Q28.33 14.37 29.13 13.86Q29.94 13.35 30.98 13.35Q32.02 13.35 32.83 13.85Q33.64 14.35 34.07 15.29Q34.51 16.23 34.52 17.48L34.52 17.48L34.52 17.96Q34.52 19.21 34.09 20.16Q33.65 21.10 32.85 21.61Q32.04 22.12 30.99 22.12L30.99 22.12Q29.96 22.12 29.14 21.61Q28.33 21.10 27.89 20.17Q27.45 19.23 27.44 18.00ZM28.92 17.46L28.92 17.96Q28.92 19.36 29.47 20.13Q30.02 20.90 30.99 20.90L30.99 20.90Q31.98 20.90 32.51 20.15Q33.04 19.40 33.04 17.96L33.04 17.96L33.04 17.51Q33.04 16.09 32.50 15.34Q31.97 14.58 30.98 14.58L30.98 14.58Q30.02 14.58 29.48 15.33Q28.94 16.09 28.92 17.46L28.92 17.46ZM40.67 14.66L38.03 14.66L38.03 13.47L44.80 13.47L44.80 14.66L42.14 14.66L42.14 22L40.67 22L40.67 14.66ZM50.12 22L48.64 22L48.64 13.47L50.12 13.47L50.12 22ZM57.23 22L54.17 13.47L55.79 13.47L57.93 20.14L60.10 13.47L61.73 13.47L58.66 22L57.23 22ZM66.46 22L64.92 22L68.14 13.47L69.47 13.47L72.70 22L71.15 22L70.46 20.01L67.15 20.01L66.46 22ZM68.80 15.28L67.57 18.82L70.04 18.82L68.80 15.28ZM78.34 14.66L75.70 14.66L75.70 13.47L82.47 13.47L82.47 14.66L79.81 14.66L79.81 22L78.34 22L78.34 14.66ZM91.80 22L86.22 22L86.22 13.47L91.76 13.47L91.76 14.66L87.71 14.66L87.71 17.02L91.21 17.02L91.21 18.19L87.71 18.19L87.71 20.82L91.80 20.82L91.80 22ZM98.45 22L96.00 22L96.00 13.47L98.52 13.47Q99.65 13.47 100.52 13.97Q101.40 14.48 101.88 15.40Q102.36 16.33 102.36 17.52L102.36 17.52L102.36 17.95Q102.36 19.16 101.88 20.08Q101.39 21.00 100.50 21.50Q99.61 22 98.45 22L98.45 22ZM97.48 14.66L97.48 20.82L98.45 20.82Q99.61 20.82 100.24 20.09Q100.86 19.36 100.87 17.99L100.87 17.99L100.87 17.52Q100.87 16.13 100.27 15.40Q99.66 14.66 98.52 14.66L98.52 14.66L97.48 14.66ZM115.91 22L112.80 22L112.80 13.47L115.72 13.47Q117.17 13.47 117.93 14.05Q118.68 14.63 118.68 15.78L118.68 15.78Q118.68 16.36 118.37 16.83Q118.05 17.30 117.44 17.56L117.44 17.56Q118.13 17.75 118.51 18.26Q118.89 18.78 118.89 19.51L118.89 19.51Q118.89 20.71 118.12 21.36Q117.35 22 115.91 22L115.91 22ZM114.28 18.15L114.28 20.82L115.93 20.82Q116.63 20.82 117.02 20.47Q117.41 20.13 117.41 19.51L117.41 19.51Q117.41 18.18 116.05 18.15L116.05 18.15L114.28 18.15ZM114.28 14.66L114.28 17.06L115.74 17.06Q116.43 17.06 116.82 16.75Q117.21 16.43 117.21 15.86L117.21 15.86Q117.21 15.23 116.85 14.95Q116.49 14.66 115.72 14.66L115.72 14.66L114.28 14.66ZM125.40 18.86L122.53 13.47L124.18 13.47L126.14 17.51L128.11 13.47L129.75 13.47L126.89 18.86L126.89 22L125.40 22L125.40 18.86Z" fill="#FFFFFF"/><path class="svg__text" d="M158.10 22L155.72 22L155.72 13.60L158.10 13.60L158.10 16.76L161.34 16.76L161.34 13.60L163.71 13.60L163.71 22L161.34 22L161.34 18.72L158.10 18.72L158.10 22Z" fill="#FFFFFF" x="154.53"/></svg>